<svg width="32" height="32" viewBox="0 0 32 32" fill="none" xmlns="http://www.w3.org/2000/svg">
<g clip-path="url(#clip0_959_8697)">
<mask id="mask0_959_8697" style="mask-type:alpha" maskUnits="userSpaceOnUse" x="5" y="5" width="22" height="22">
<path d="M25.2061 5.30349C25.8921 5.10256 26.2351 5.00209 26.4688 5.08933C26.6725 5.16536 26.8332 5.32602 26.9092 5.52969C26.9964 5.76339 26.896 6.1064 26.695 6.79241L24.0968 15.6632C24.0601 15.7886 24.0417 15.8513 24.0344 15.9152C24.0279 15.9718 24.0279 16.0291 24.0344 16.0858C24.0417 16.1496 24.0601 16.2123 24.0968 16.3378L26.695 25.2085C26.896 25.8945 26.9964 26.2375 26.9092 26.4712C26.8332 26.6749 26.6725 26.8356 26.4688 26.9116C26.2351 26.9988 25.8921 26.8984 25.2061 26.6974L16.3353 24.0993C16.2099 24.0625 16.1472 24.0441 16.0833 24.0368C16.0267 24.0304 15.9694 24.0304 15.9128 24.0368C15.8489 24.0441 15.7862 24.0625 15.6607 24.0993L6.78999 26.6974C6.10398 26.8984 5.76097 26.9988 5.52727 26.9116C5.3236 26.8356 5.16294 26.6749 5.08692 26.4712C4.99968 26.2375 5.10014 25.8945 5.30107 25.2085L7.89925 16.3378C7.93599 16.2123 7.95436 16.1496 7.96167 16.0858C7.96816 16.0291 7.96816 15.9718 7.96167 15.9152C7.95436 15.8513 7.93599 15.7886 7.89925 15.6632L5.30107 6.79241C5.10014 6.1064 4.99968 5.76339 5.08692 5.52969C5.16294 5.32602 5.3236 5.16536 5.52727 5.08933C5.76097 5.00209 6.10398 5.10256 6.78999 5.30349L15.6607 7.90167C15.7862 7.93841 15.8489 7.95678 15.9128 7.96409C15.9694 7.97058 16.0267 7.97058 16.0833 7.96409C16.1472 7.95678 16.2099 7.93841 16.3353 7.90167L25.2061 5.30349Z" fill="#C70000"/>
</mask>
<g mask="url(#mask0_959_8697)">
<rect width="32" height="32" fill="#D20F0F"/>
</g>
<path d="M14.9472 1.92502C15.2902 1.29785 15.4617 0.984274 15.6886 0.880708C15.8864 0.790452 16.1136 0.790452 16.3114 0.880708C16.5383 0.984274 16.7098 1.29785 17.0528 1.92502L21.4882 10.0348C21.5509 10.1495 21.5823 10.2068 21.6223 10.2571C21.6578 10.3018 21.6982 10.3422 21.7429 10.3777C21.7932 10.4177 21.8505 10.4491 21.9652 10.5118L30.075 14.9472C30.7021 15.2902 31.0157 15.4617 31.1193 15.6886C31.2095 15.8864 31.2095 16.1136 31.1193 16.3114C31.0157 16.5383 30.7021 16.7098 30.075 17.0528L21.9652 21.4882C21.8505 21.5509 21.7932 21.5823 21.7429 21.6223C21.6982 21.6578 21.6578 21.6982 21.6223 21.7429C21.5823 21.7932 21.5509 21.8505 21.4882 21.9652L17.0528 30.075C16.7098 30.7021 16.5383 31.0157 16.3114 31.1193C16.1136 31.2095 15.8864 31.2095 15.6886 31.1193C15.4617 31.0157 15.2902 30.7021 14.9472 30.075L10.5118 21.9652C10.4491 21.8505 10.4177 21.7932 10.3777 21.7429C10.3422 21.6982 10.3018 21.6578 10.2571 21.6223C10.2068 21.5823 10.1495 21.5509 10.0348 21.4882L1.92502 17.0528C1.29785 16.7098 0.984274 16.5383 0.880708 16.3114C0.790452 16.1136 0.790452 15.8864 0.880708 15.6886C0.984274 15.4617 1.29785 15.2902 1.92502 14.9472L10.0348 10.5118C10.1495 10.4491 10.2068 10.4177 10.2571 10.3777C10.3018 10.3422 10.3422 10.3018 10.3777 10.2571C10.4177 10.2068 10.4491 10.1495 10.5118 10.0348L14.9472 1.92502Z" fill="#FC2A2A"/>
<path fill-rule="evenodd" clip-rule="evenodd" d="M4.08899 21.2135C4.19201 21.4622 4.24353 21.5865 4.25113 21.712C4.25786 21.823 4.23984 21.9341 4.19836 22.0372C4.15146 22.1538 4.06327 22.2555 3.88688 22.4589L3.02967 23.4473C2.73307 23.7893 2.58477 23.9603 2.40697 24.0272C2.25076 24.086 2.0794 24.0911 1.92 24.0415C1.73858 23.9851 1.5805 23.8231 1.26432 23.4992L0.629847 22.849C0.505997 22.7221 0.444072 22.6587 0.399502 22.5851C0.35998 22.5199 0.330632 22.4491 0.312471 22.375C0.29199 22.2915 0.290909 22.2028 0.288747 22.0255L0.277671 21.1172C0.272152 20.6645 0.269392 20.4382 0.357793 20.27C0.435462 20.1223 0.5602 20.0047 0.712253 19.9358C0.885315 19.8574 1.11109 19.8735 1.56265 19.9056L2.86766 19.9983C3.1362 20.0174 3.27047 20.0269 3.38611 20.0763C3.48837 20.1199 3.57965 20.1857 3.65336 20.2689C3.73671 20.363 3.78822 20.4873 3.89125 20.7361L4.08899 21.2135Z" fill="#FC2A2A"/>
<path fill-rule="evenodd" clip-rule="evenodd" d="M11.2627 28.1096C11.5114 28.2126 11.6358 28.2641 11.7299 28.3475C11.8131 28.4212 11.8789 28.5125 11.9225 28.6147C11.9719 28.7303 11.9814 28.8646 12.0005 29.1332L12.0932 30.4382C12.1253 30.8897 12.1414 31.1155 12.063 31.2886C11.9941 31.4406 11.8765 31.5654 11.7288 31.643C11.5606 31.7314 11.3343 31.7287 10.8816 31.7231L9.97326 31.7121C9.79594 31.7099 9.70729 31.7088 9.62378 31.6883C9.54972 31.6702 9.47887 31.6408 9.41366 31.6013C9.34013 31.5567 9.27668 31.4948 9.14977 31.371L8.49963 30.7365C8.17565 30.4203 8.01366 30.2622 7.95726 30.0808C7.90771 29.9214 7.91274 29.7501 7.97157 29.5938C8.03852 29.4161 8.20952 29.2678 8.55151 28.9711L9.53987 28.1139C9.74325 27.9376 9.84494 27.8494 9.96158 27.8025C10.0647 27.761 10.1758 27.743 10.2868 27.7497C10.4122 27.7573 10.5366 27.8088 10.7853 27.9118L11.2627 28.1096Z" fill="#FC2A2A"/>
<path fill-rule="evenodd" clip-rule="evenodd" d="M21.213 27.912C21.4617 27.809 21.5861 27.7575 21.7115 27.7498C21.8225 27.7431 21.9336 27.7611 22.0367 27.8026C22.1534 27.8495 22.2551 27.9377 22.4584 28.1141L23.4468 28.9713C23.7888 29.2679 23.9598 29.4162 24.0267 29.594C24.0856 29.7502 24.0906 29.9216 24.041 30.081C23.9846 30.2624 23.8227 30.4205 23.4987 30.7367L22.8485 31.3711C22.7216 31.495 22.6582 31.5569 22.5846 31.6015C22.5194 31.641 22.4486 31.6703 22.3745 31.6885C22.291 31.709 22.2024 31.7101 22.025 31.7122L21.1167 31.7233C20.664 31.7288 20.4377 31.7316 20.2695 31.6432C20.1218 31.5655 20.0042 31.4408 19.9353 31.2887C19.8569 31.1157 19.873 30.8899 19.9051 30.4383L19.9978 29.1333C20.0169 28.8648 20.0265 28.7305 20.0758 28.6149C20.1194 28.5126 20.1852 28.4213 20.2684 28.3476C20.3625 28.2643 20.4869 28.2128 20.7356 28.1097L21.213 27.912Z" fill="#E20303"/>
<path fill-rule="evenodd" clip-rule="evenodd" d="M28.1081 20.7363C28.2111 20.4876 28.2626 20.3632 28.346 20.2691C28.4197 20.1859 28.511 20.1201 28.6132 20.0765C28.7289 20.0272 28.8632 20.0176 29.1317 19.9985L30.4367 19.9058C30.8883 19.8737 31.114 19.8577 31.2871 19.936C31.4392 20.0049 31.5639 20.1225 31.6416 20.2703C31.73 20.4384 31.7272 20.6648 31.7217 21.1174L31.7106 22.0258C31.7084 22.2031 31.7074 22.2917 31.6869 22.3752C31.6687 22.4493 31.6394 22.5202 31.5999 22.5854C31.5553 22.6589 31.4934 22.7223 31.3695 22.8493L30.735 23.4994C30.4189 23.8234 30.2608 23.9854 30.0794 24.0418C29.92 24.0913 29.7486 24.0863 29.5924 24.0275C29.4146 23.9605 29.2663 23.7895 28.9697 23.4475L28.1125 22.4592C27.9361 22.2558 27.8479 22.1541 27.801 22.0374C27.7595 21.9343 27.7415 21.8232 27.7482 21.7123C27.7558 21.5868 27.8073 21.4624 27.9104 21.2137L28.1081 20.7363Z" fill="#E20303"/>
<path fill-rule="evenodd" clip-rule="evenodd" d="M27.9091 10.787C27.806 10.5383 27.7545 10.4139 27.7469 10.2885C27.7402 10.1775 27.7582 10.0664 27.7997 9.96328C27.8466 9.84664 27.9348 9.74495 28.1112 9.54157L28.9684 8.55321C29.265 8.21122 29.4133 8.04022 29.5911 7.97327C29.7473 7.91444 29.9187 7.9094 30.078 7.95896C30.2595 8.01535 30.4176 8.17735 30.7337 8.50133L31.3682 9.15146C31.492 9.27837 31.554 9.34183 31.5985 9.41536C31.6381 9.48057 31.6674 9.55142 31.6856 9.62547C31.7061 9.70899 31.7071 9.79764 31.7093 9.97495L31.7204 10.8833C31.7259 11.336 31.7287 11.5623 31.6403 11.7305C31.5626 11.8782 31.4378 11.9958 31.2858 12.0647C31.1127 12.1431 30.887 12.127 30.4354 12.0949L29.1304 12.0022C28.8618 11.9831 28.7276 11.9735 28.6119 11.9242C28.5097 11.8806 28.4184 11.8148 28.3447 11.7316C28.2613 11.6375 28.2098 11.5131 28.1068 11.2644L27.9091 10.787Z" fill="#FC2A2A"/>
<path fill-rule="evenodd" clip-rule="evenodd" d="M20.7353 3.89092C20.4866 3.78789 20.3622 3.73638 20.2681 3.65303C20.1849 3.57932 20.1191 3.48804 20.0755 3.38578C20.0262 3.27014 20.0167 3.13587 19.9976 2.86733L19.9048 1.56232C19.8727 1.11076 19.8567 0.884984 19.9351 0.711922C20.0039 0.559868 20.1215 0.435131 20.2693 0.357462C20.4374 0.269061 20.6638 0.27182 21.1164 0.27734L22.0248 0.288416C22.2021 0.290578 22.2908 0.291659 22.3743 0.31214C22.4483 0.330301 22.5192 0.359649 22.5844 0.399171C22.6579 0.443741 22.7214 0.505666 22.8483 0.629516L23.4984 1.26399C23.8224 1.58016 23.9844 1.73825 24.0408 1.91967C24.0903 2.07906 24.0853 2.25043 24.0265 2.40664C23.9595 2.58443 23.7885 2.73274 23.4465 3.02934L22.4582 3.88655C22.2548 4.06294 22.1531 4.15113 22.0365 4.19803C21.9333 4.2395 21.8222 4.25753 21.7113 4.2508C21.5858 4.24319 21.4614 4.19168 21.2127 4.08866L20.7353 3.89092Z" fill="#FC2A2A"/>
<path fill-rule="evenodd" clip-rule="evenodd" d="M10.7851 4.0885C10.5364 4.19152 10.412 4.24304 10.2865 4.25064C10.1755 4.25737 10.0645 4.23935 9.96132 4.19787C9.84469 4.15098 9.743 4.06278 9.53961 3.88639L8.55125 3.02919C8.20926 2.73258 8.03827 2.58428 7.97131 2.40648C7.91249 2.25028 7.90745 2.07891 7.957 1.91951C8.0134 1.7381 8.17539 1.58001 8.49938 1.26383L9.14951 0.629359C9.27642 0.505509 9.33987 0.443584 9.41341 0.399014C9.47861 0.359492 9.54946 0.330144 9.62352 0.311983C9.70703 0.291502 9.79569 0.290421 9.973 0.288259L10.8814 0.277183C11.334 0.271663 11.5603 0.268904 11.7285 0.357305C11.8763 0.434974 11.9939 0.559711 12.0627 0.711764C12.1411 0.884827 12.1251 1.1106 12.093 1.56216L12.0002 2.86717C11.9811 3.13571 11.9716 3.26998 11.9223 3.38562C11.8787 3.48788 11.8129 3.57916 11.7297 3.65287C11.6355 3.73622 11.5112 3.78773 11.2625 3.89076L10.7851 4.0885Z" fill="#FE4343"/>
<path fill-rule="evenodd" clip-rule="evenodd" d="M3.88994 11.2642C3.78691 11.5129 3.7354 11.6373 3.65205 11.7314C3.57834 11.8146 3.48706 11.8804 3.3848 11.924C3.26916 11.9733 3.13489 11.9829 2.86635 12.0019L1.56134 12.0947C1.10979 12.1268 0.884008 12.1428 0.710945 12.0645C0.558892 11.9956 0.434155 11.878 0.356485 11.7302C0.268084 11.5621 0.270844 11.3357 0.276363 10.8831L0.287439 9.97472C0.289601 9.79741 0.290682 9.70875 0.311163 9.62524C0.329324 9.55119 0.358672 9.48033 0.398194 9.41513C0.442765 9.34159 0.50469 9.27814 0.628539 9.15123L1.26301 8.5011C1.57919 8.17711 1.73728 8.01512 1.91869 7.95872C2.07809 7.90917 2.24946 7.91421 2.40567 7.97303C2.58346 8.03999 2.73176 8.21098 3.02837 8.55297L3.88557 9.54134C4.06196 9.74472 4.15016 9.84641 4.19706 9.96305C4.23853 10.0662 4.25655 10.1773 4.24983 10.2882C4.24222 10.4137 4.1907 10.5381 4.08768 10.7868L3.88994 11.2642Z" fill="#FE4343"/>
</g>
<defs>
<clipPath id="clip0_959_8697">
<rect width="32" height="32" fill="white"/>
</clipPath>
</defs>
</svg>
