<svg width="32" height="32" viewBox="0 0 32 32" fill="none" xmlns="http://www.w3.org/2000/svg">
<g clip-path="url(#clip0_959_8646)">
<path fill-rule="evenodd" clip-rule="evenodd" d="M23.5548 9.6057L15.9956 10.001L8.44531 9.6057L9.67567 6.34804C9.79035 6.04441 9.84768 5.8926 9.94797 5.78472C10.0365 5.68951 10.1482 5.61893 10.2723 5.57993C10.4128 5.53574 10.5745 5.54922 10.8979 5.57617L15.8959 5.99267C15.9333 5.99578 15.952 5.99734 15.9707 5.99796C15.9873 5.99852 16.0039 5.99852 16.0205 5.99796C16.0392 5.99734 16.0579 5.99578 16.0952 5.99267L21.095 5.57602C21.4179 5.54912 21.5793 5.53567 21.7196 5.57971C21.8435 5.61859 21.9551 5.68894 22.0436 5.7839C22.1439 5.89148 22.2015 6.04291 22.3165 6.34576L23.5548 9.6057Z" fill="#37B96E"/>
<path fill-rule="evenodd" clip-rule="evenodd" d="M23.1855 8.87973C23.4563 9.42132 23.5917 9.69212 23.5625 9.91881C23.537 10.117 23.4335 10.2968 23.2749 10.4183C23.0935 10.5574 22.7914 10.5763 22.187 10.614L15.9961 11.001L9.80518 10.614C9.20083 10.5763 8.89866 10.5574 8.71727 10.4183C8.5587 10.2968 8.45518 10.117 8.42969 9.91881C8.40052 9.69212 8.53592 9.42132 8.80672 8.87973L9.63276 7.22764C9.76395 6.96527 9.82954 6.83408 9.92857 6.74182C10.0161 6.66029 10.1218 6.60088 10.2369 6.56852C10.3672 6.5319 10.5134 6.54409 10.8057 6.56845L15.8964 6.99267C15.9338 6.99578 15.9525 6.99734 15.9712 6.99796C15.9878 6.99852 16.0044 6.99852 16.021 6.99796C16.0397 6.99734 16.0584 6.99578 16.0957 6.99267L21.1865 6.56845C21.4788 6.54409 21.625 6.5319 21.7553 6.56852C21.8704 6.60088 21.9761 6.66029 22.0636 6.74182C22.1626 6.83408 22.2282 6.96527 22.3594 7.22764L23.1855 8.87973Z" fill="#2ECC71"/>
<path fill-rule="evenodd" clip-rule="evenodd" d="M6.67974 12.6515L10.8017 19.0003L14.2345 25.7367L10.7981 26.3C10.4778 26.3525 10.3177 26.3788 10.1741 26.3458C10.0474 26.3168 9.93038 26.2553 9.83459 26.1674C9.72607 26.0678 9.65688 25.921 9.5185 25.6274L7.3802 21.0908C7.36422 21.0569 7.35623 21.0399 7.34742 21.0234C7.33959 21.0088 7.33127 20.9944 7.32248 20.9802C7.31259 20.9644 7.30191 20.949 7.28054 20.9182L4.41982 16.7966C4.23509 16.5304 4.14273 16.3973 4.11071 16.2538C4.08245 16.1271 4.08756 15.9952 4.12554 15.8711C4.16857 15.7305 4.27094 15.6049 4.4757 15.3539L6.67974 12.6515Z" fill="#37B96E"/>
<path fill-rule="evenodd" clip-rule="evenodd" d="M6.2349 13.335C6.56854 12.8296 6.73536 12.577 6.94626 12.4889C7.13063 12.4119 7.33809 12.4116 7.52265 12.4882C7.73377 12.5757 7.90121 12.828 8.23609 13.3325L11.6666 18.5005L14.427 24.0555C14.6965 24.5977 14.8312 24.8689 14.8015 25.0955C14.7755 25.2936 14.6715 25.4731 14.5127 25.5943C14.3309 25.7329 14.0287 25.751 13.4243 25.7873L11.5805 25.898C11.2877 25.9156 11.1413 25.9243 11.0119 25.8847C10.8975 25.8497 10.7932 25.7878 10.7076 25.7043C10.6107 25.6098 10.5482 25.4771 10.4231 25.2118L8.24518 20.591C8.2292 20.5571 8.22121 20.5401 8.2124 20.5236C8.20457 20.5089 8.19625 20.4945 8.18746 20.4804C8.17758 20.4645 8.16689 20.4491 8.14552 20.4184L5.23278 16.2218C5.06552 15.9808 4.98189 15.8603 4.94845 15.7292C4.9189 15.6133 4.91749 15.492 4.94434 15.3755C4.97473 15.2436 5.05555 15.1212 5.21718 14.8764L6.2349 13.335Z" fill="#2ECC71"/>
<path fill-rule="evenodd" clip-rule="evenodd" d="M17.7596 25.7447L21.1969 19.0006L25.3144 12.6596L27.5204 15.3539C27.726 15.605 27.8288 15.7306 27.8721 15.8714C27.9103 15.9957 27.9155 16.1277 27.8873 16.2546C27.8553 16.3984 27.7628 16.5317 27.5777 16.7983L24.718 20.9185C24.6966 20.9493 24.686 20.9647 24.6761 20.9806C24.6673 20.9947 24.659 21.0091 24.6511 21.0238C24.6423 21.0403 24.6343 21.0572 24.6184 21.0911L22.4793 25.6294C22.3412 25.9224 22.2721 26.0689 22.1638 26.1684C22.0682 26.2563 21.9514 26.3178 21.825 26.347C21.6816 26.38 21.5217 26.3541 21.2019 26.3023L17.7596 25.7447Z" fill="#37B96E"/>
<path fill-rule="evenodd" clip-rule="evenodd" d="M18.5738 25.7873C17.9693 25.751 17.6671 25.7329 17.4854 25.5943C17.3265 25.4731 17.2226 25.2935 17.1966 25.0954C17.1668 24.8688 17.3016 24.5977 17.571 24.0554L20.3314 18.5005L23.762 13.3324C24.0968 12.828 24.2643 12.5757 24.4754 12.4881C24.66 12.4116 24.8674 12.4118 25.0518 12.4889C25.2627 12.5769 25.4295 12.8296 25.7631 13.3349L26.7809 14.8763C26.9425 15.1211 27.0233 15.2435 27.0537 15.3754C27.0806 15.492 27.0791 15.6132 27.0496 15.7291C27.0162 15.8603 26.9325 15.9808 26.7653 16.2217L23.8525 20.4183C23.8312 20.4491 23.8205 20.4645 23.8106 20.4804C23.8018 20.4945 23.7935 20.5089 23.7856 20.5236C23.7768 20.5401 23.7688 20.557 23.7529 20.5909L21.5749 25.2117C21.4498 25.4771 21.3873 25.6097 21.2904 25.7043C21.2049 25.7878 21.1005 25.8497 20.9862 25.8847C20.8568 25.9243 20.7104 25.9155 20.4175 25.8979L18.5738 25.7873Z" fill="#2ECC71"/>
</g>
<defs>
<clipPath id="clip0_959_8646">
<rect width="32" height="32" fill="white"/>
</clipPath>
</defs>
</svg>
