<svg width="32" height="32" viewBox="0 0 32 32" fill="none" xmlns="http://www.w3.org/2000/svg">
<g clip-path="url(#clip0_959_8501)">
<path fill-rule="evenodd" clip-rule="evenodd" d="M14.7704 13.1926C14.4919 13.123 14.3526 13.0881 14.2426 13.0136C14.1453 12.9477 14.065 12.8598 14.0079 12.7572C13.9433 12.641 13.9209 12.4992 13.8761 12.2156L12.6657 4.54918C12.607 4.17781 12.5777 3.99212 12.6232 3.83285C12.6632 3.69252 12.7434 3.56694 12.8538 3.47148C12.9791 3.36313 13.1598 3.31148 13.5213 3.2082L15.6703 2.59419C15.793 2.55915 15.8543 2.54163 15.9167 2.53465C15.9721 2.52846 16.0279 2.52846 16.0833 2.53465C16.1457 2.54163 16.207 2.55915 16.3297 2.59419L18.4787 3.2082C18.8402 3.31148 19.0209 3.36313 19.1462 3.47148C19.2566 3.56694 19.3368 3.69252 19.3768 3.83285C19.4223 3.99212 19.393 4.17781 19.3343 4.54918L18.1239 12.2156C18.0791 12.4992 18.0567 12.641 17.9921 12.7572C17.935 12.8598 17.8547 12.9477 17.7574 13.0136C17.6474 13.0881 17.5081 13.123 17.2296 13.1926L16.291 13.4272C16.1826 13.4544 16.1283 13.4679 16.0734 13.4733C16.0246 13.4781 15.9754 13.4781 15.9266 13.4733C15.8717 13.4679 15.8174 13.4544 15.709 13.4272L14.7704 13.1926Z" fill="#E27718"/>
<path fill-rule="evenodd" clip-rule="evenodd" d="M14.8095 13.2024C14.5177 13.1294 14.3718 13.093 14.2585 13.0138C14.1583 12.9439 14.0768 12.8506 14.0209 12.742C13.9577 12.6191 13.9411 12.4696 13.9079 12.1707L13.1255 5.12938C13.0813 4.73202 13.0593 4.53334 13.1178 4.36993C13.1694 4.22609 13.2637 4.10144 13.388 4.01265C13.5293 3.91178 13.7265 3.87892 14.1209 3.81319L15.8027 3.53288C15.8765 3.52058 15.9134 3.51444 15.9505 3.51198C15.9835 3.5098 16.0165 3.5098 16.0495 3.51198C16.0866 3.51444 16.1235 3.52058 16.1973 3.53288L17.8791 3.81319C18.2735 3.87892 18.4707 3.91178 18.612 4.01265C18.7363 4.10144 18.8306 4.22609 18.8822 4.36993C18.9407 4.53334 18.9187 4.73202 18.8745 5.12938L18.0921 12.1707C18.0589 12.4696 18.0423 12.6191 17.9791 12.742C17.9232 12.8506 17.8417 12.9439 17.7415 13.0138C17.6282 13.093 17.4823 13.1294 17.1905 13.2024L16.291 13.4272C16.1826 13.4544 16.1283 13.4679 16.0734 13.4733C16.0246 13.4781 15.9754 13.4781 15.9266 13.4733C15.8717 13.4679 15.8174 13.4544 15.709 13.4272L14.8095 13.2024Z" fill="#F88825"/>
<path fill-rule="evenodd" clip-rule="evenodd" d="M18.8074 14.7704C18.877 14.4919 18.9119 14.3526 18.9864 14.2426C19.0523 14.1453 19.1402 14.065 19.2428 14.0079C19.359 13.9433 19.5008 13.9209 19.7844 13.8761L27.4508 12.6657C27.8222 12.607 28.0079 12.5777 28.1672 12.6232C28.3075 12.6632 28.4331 12.7434 28.5285 12.8538C28.6369 12.9791 28.6885 13.1598 28.7918 13.5213L29.4058 15.6703C29.4409 15.793 29.4584 15.8543 29.4653 15.9167C29.4715 15.9721 29.4715 16.0279 29.4653 16.0833C29.4584 16.1457 29.4409 16.207 29.4058 16.3297L28.7918 18.4787C28.6885 18.8402 28.6369 19.0209 28.5285 19.1462C28.4331 19.2566 28.3075 19.3368 28.1672 19.3768C28.0079 19.4223 27.8222 19.393 27.4508 19.3343L19.7844 18.1239C19.5008 18.0791 19.359 18.0567 19.2428 17.9921C19.1402 17.935 19.0523 17.8547 18.9864 17.7574C18.9119 17.6474 18.877 17.5081 18.8074 17.2296L18.5728 16.291C18.5456 16.1826 18.5321 16.1283 18.5267 16.0734C18.5219 16.0246 18.5219 15.9754 18.5267 15.9266C18.5321 15.8717 18.5456 15.8174 18.5728 15.709L18.8074 14.7704Z" fill="#E27718"/>
<path fill-rule="evenodd" clip-rule="evenodd" d="M18.7976 14.8095C18.8706 14.5177 18.907 14.3718 18.9862 14.2585C19.0561 14.1583 19.1494 14.0768 19.258 14.0209C19.3809 13.9577 19.5304 13.9411 19.8293 13.9079L26.8706 13.1255C27.268 13.0813 27.4667 13.0593 27.6301 13.1178C27.7739 13.1694 27.8986 13.2637 27.9874 13.388C28.0882 13.5293 28.1211 13.7265 28.1868 14.1209L28.4671 15.8027C28.4794 15.8765 28.4856 15.9134 28.488 15.9505C28.4902 15.9835 28.4902 16.0165 28.488 16.0495C28.4856 16.0866 28.4794 16.1235 28.4671 16.1973L28.1868 17.8791C28.1211 18.2735 28.0882 18.4707 27.9874 18.612C27.8986 18.7363 27.7739 18.8306 27.6301 18.8822C27.4667 18.9407 27.268 18.9187 26.8706 18.8745L19.8293 18.0921C19.5304 18.0589 19.3809 18.0423 19.258 17.9791C19.1494 17.9232 19.0561 17.8417 18.9862 17.7415C18.907 17.6282 18.8706 17.4823 18.7976 17.1905L18.5728 16.291C18.5456 16.1826 18.5321 16.1283 18.5267 16.0734C18.5219 16.0246 18.5219 15.9754 18.5267 15.9266C18.5321 15.8717 18.5456 15.8174 18.5728 15.709L18.7976 14.8095Z" fill="#F88825"/>
<path fill-rule="evenodd" clip-rule="evenodd" d="M13.1926 17.2296C13.123 17.5081 13.0881 17.6474 13.0136 17.7574C12.9477 17.8547 12.8598 17.935 12.7572 17.9921C12.641 18.0567 12.4992 18.0791 12.2156 18.1239L4.54918 19.3343C4.17781 19.393 3.99212 19.4223 3.83285 19.3768C3.69252 19.3368 3.56694 19.2566 3.47148 19.1462C3.36313 19.0209 3.31148 18.8402 3.2082 18.4787L2.59419 16.3297C2.55915 16.207 2.54163 16.1457 2.53465 16.0833C2.52846 16.0279 2.52846 15.9721 2.53465 15.9167C2.54163 15.8543 2.55915 15.793 2.59419 15.6703L3.2082 13.5213C3.31148 13.1598 3.36313 12.9791 3.47148 12.8538C3.56694 12.7434 3.69252 12.6632 3.83285 12.6232C3.99212 12.5777 4.17781 12.607 4.54918 12.6657L12.2156 13.8761C12.4992 13.9209 12.641 13.9433 12.7572 14.0079C12.8598 14.065 12.9477 14.1453 13.0136 14.2426C13.0881 14.3526 13.123 14.4919 13.1926 14.7704L13.4272 15.709C13.4544 15.8174 13.4679 15.8717 13.4733 15.9266C13.4781 15.9754 13.4781 16.0246 13.4733 16.0734C13.4679 16.1283 13.4544 16.1826 13.4272 16.291L13.1926 17.2296Z" fill="#E27718"/>
<path fill-rule="evenodd" clip-rule="evenodd" d="M13.2024 17.1905C13.1294 17.4823 13.093 17.6282 13.0138 17.7415C12.9439 17.8417 12.8506 17.9232 12.742 17.9791C12.6191 18.0423 12.4696 18.0589 12.1707 18.0921L5.12938 18.8745C4.73202 18.9187 4.53334 18.9407 4.36993 18.8822C4.22609 18.8306 4.10144 18.7363 4.01265 18.612C3.91178 18.4707 3.87892 18.2735 3.81319 17.8791L3.53288 16.1973C3.52058 16.1235 3.51444 16.0866 3.51198 16.0495C3.5098 16.0165 3.5098 15.9835 3.51198 15.9505C3.51444 15.9134 3.52058 15.8765 3.53288 15.8027L3.81319 14.1209C3.87892 13.7265 3.91178 13.5293 4.01265 13.388C4.10144 13.2637 4.22609 13.1694 4.36993 13.1178C4.53334 13.0593 4.73202 13.0813 5.12938 13.1255L12.1707 13.9079C12.4696 13.9411 12.6191 13.9577 12.742 14.0209C12.8506 14.0768 12.9439 14.1583 13.0138 14.2585C13.093 14.3718 13.1294 14.5177 13.2024 14.8095L13.4272 15.709C13.4544 15.8174 13.4679 15.8717 13.4733 15.9266C13.4781 15.9754 13.4781 16.0246 13.4733 16.0734C13.4679 16.1283 13.4544 16.1826 13.4272 16.291L13.2024 17.1905Z" fill="#F88825"/>
<path fill-rule="evenodd" clip-rule="evenodd" d="M17.2296 18.8074C17.5081 18.877 17.6474 18.9119 17.7574 18.9864C17.8547 19.0523 17.935 19.1402 17.9921 19.2428C18.0567 19.359 18.0791 19.5008 18.1239 19.7844L19.3343 27.4508C19.393 27.8222 19.4223 28.0079 19.3768 28.1672C19.3368 28.3075 19.2566 28.4331 19.1462 28.5285C19.0209 28.6369 18.8402 28.6885 18.4787 28.7918L16.3297 29.4058C16.207 29.4409 16.1457 29.4584 16.0833 29.4653C16.0279 29.4715 15.9721 29.4715 15.9167 29.4653C15.8543 29.4584 15.793 29.4409 15.6703 29.4058L13.5213 28.7918C13.1598 28.6885 12.9791 28.6369 12.8538 28.5285C12.7434 28.4331 12.6632 28.3075 12.6232 28.1672C12.5777 28.0079 12.607 27.8222 12.6657 27.4508L13.8761 19.7844C13.9209 19.5008 13.9433 19.359 14.0079 19.2428C14.065 19.1402 14.1453 19.0523 14.2426 18.9864C14.3526 18.9119 14.4919 18.877 14.7704 18.8074L15.709 18.5728C15.8174 18.5456 15.8717 18.5321 15.9266 18.5267C15.9754 18.5219 16.0246 18.5219 16.0734 18.5267C16.1283 18.5321 16.1826 18.5456 16.291 18.5728L17.2296 18.8074Z" fill="#E27718"/>
<path fill-rule="evenodd" clip-rule="evenodd" d="M17.1905 18.7976C17.4823 18.8706 17.6282 18.907 17.7415 18.9862C17.8417 19.0561 17.9232 19.1494 17.9791 19.258C18.0423 19.3809 18.0589 19.5304 18.0921 19.8293L18.8745 26.8706C18.9187 27.268 18.9407 27.4667 18.8822 27.6301C18.8306 27.7739 18.7363 27.8986 18.612 27.9874C18.4707 28.0882 18.2735 28.1211 17.8791 28.1868L16.1973 28.4671C16.1235 28.4794 16.0866 28.4856 16.0495 28.488C16.0165 28.4902 15.9835 28.4902 15.9505 28.488C15.9134 28.4856 15.8765 28.4794 15.8027 28.4671L14.1209 28.1868C13.7265 28.1211 13.5293 28.0882 13.388 27.9874C13.2637 27.8986 13.1694 27.7739 13.1178 27.6301C13.0593 27.4667 13.0813 27.268 13.1255 26.8706L13.9079 19.8293C13.9411 19.5304 13.9577 19.3809 14.0209 19.258C14.0768 19.1494 14.1583 19.0561 14.2585 18.9862C14.3718 18.907 14.5177 18.8706 14.8095 18.7976L15.709 18.5728C15.8174 18.5456 15.8717 18.5321 15.9266 18.5267C15.9754 18.5219 16.0246 18.5219 16.0734 18.5267C16.1283 18.5321 16.1826 18.5456 16.291 18.5728L17.1905 18.7976Z" fill="#F88825"/>
</g>
<defs>
<clipPath id="clip0_959_8501">
<rect width="32" height="32" fill="white"/>
</clipPath>
</defs>
</svg>
