<svg width="32" height="32" viewBox="0 0 32 32" fill="none" xmlns="http://www.w3.org/2000/svg">
<path fill-rule="evenodd" clip-rule="evenodd" d="M26.1663 17.6612C26.1953 18.1246 26.2098 18.3562 26.127 18.531C26.0544 18.6844 25.9318 18.8087 25.7793 18.8835C25.6057 18.9686 25.3739 18.9573 24.9102 18.9346L16 18.5L7.0898 18.9346C6.62611 18.9573 6.39427 18.9686 6.22067 18.8835C6.06821 18.8087 5.94562 18.6844 5.87297 18.531C5.79024 18.3562 5.80472 18.1246 5.83367 17.6612L6 15L16 14.5L26 15L26.1663 17.6612Z" fill="#778E9D"/>
<path fill-rule="evenodd" clip-rule="evenodd" d="M26 16.7385C26 17.1779 26 17.3976 25.9131 17.562C25.8367 17.7066 25.7151 17.8222 25.5669 17.8913C25.3983 17.9699 25.1789 17.9589 24.7401 17.937L16 17.5L7.25993 17.937C6.82109 17.9589 6.60167 17.9699 6.43308 17.8913C6.28489 17.8222 6.16333 17.7066 6.08692 17.562C6 17.3976 6 17.1779 6 16.7385L6 15.1415C6 14.74 6 14.5393 6.07672 14.383C6.14424 14.2454 6.2523 14.1318 6.38635 14.0575C6.53864 13.9731 6.73912 13.963 7.14008 13.943L16 13.5L24.8599 13.943C25.2609 13.963 25.4614 13.9731 25.6136 14.0575C25.7477 14.1318 25.8558 14.2454 25.9233 14.383C26 14.5393 26 14.74 26 15.1415V16.7385Z" fill="#99AAB5"/>
</svg>
