<svg width="32" height="32" viewBox="0 0 32 32" fill="none" xmlns="http://www.w3.org/2000/svg">
<g clip-path="url(#clip0_959_8691)">
<mask id="mask0_959_8691" style="mask-type:alpha" maskUnits="userSpaceOnUse" x="0" y="1" width="32" height="30">
<path d="M15.008 2.45756C15.3405 1.96894 15.5068 1.72463 15.7154 1.63908C15.8977 1.56426 16.1023 1.56426 16.2846 1.63908C16.4932 1.72463 16.6595 1.96894 16.992 2.45756L20.1218 7.05611C20.2641 7.26513 20.3352 7.36964 20.4293 7.44245C20.5126 7.50688 20.6085 7.55305 20.7107 7.57797C20.8263 7.60614 20.9524 7.59659 21.2045 7.5775L26.7512 7.15734C27.3406 7.11269 27.6353 7.09037 27.8322 7.20008C28.0044 7.29603 28.1319 7.45592 28.1871 7.64517C28.2503 7.86155 28.1629 8.14388 27.9883 8.70854L26.3444 14.0227C26.2697 14.2642 26.2323 14.385 26.234 14.504C26.2356 14.6092 26.2593 14.713 26.3035 14.8085C26.3536 14.9164 26.4396 15.009 26.6118 15.1942L30.3986 19.2688C30.8009 19.7018 31.0021 19.9183 31.0391 20.1406C31.0715 20.3351 31.026 20.5345 30.9125 20.6956C30.7826 20.8799 30.5075 20.9877 29.9571 21.2032L24.7774 23.2312C24.5419 23.3234 24.4242 23.3695 24.3323 23.445C24.251 23.5119 24.1846 23.5951 24.1376 23.6892C24.0844 23.7957 24.0656 23.9207 24.0281 24.1707L23.2035 29.6719C23.1159 30.2564 23.0721 30.5486 22.9213 30.7162C22.7894 30.8628 22.6052 30.9515 22.4084 30.9632C22.1834 30.9766 21.9276 30.8286 21.4159 30.5327L16.6008 27.7475C16.382 27.6209 16.2725 27.5576 16.1562 27.5329C16.0532 27.5109 15.9468 27.5109 15.8438 27.5329C15.7275 27.5576 15.618 27.6209 15.3992 27.7475L10.5841 30.5327C10.0724 30.8286 9.81661 30.9766 9.5916 30.9632C9.39481 30.9515 9.21056 30.8628 9.07869 30.7162C8.92792 30.5486 8.88411 30.2564 8.79648 29.6719L7.97185 24.1707C7.93437 23.9207 7.91563 23.7957 7.86244 23.6892C7.81539 23.5951 7.74903 23.5119 7.6677 23.445C7.57578 23.3695 7.45806 23.3234 7.22262 23.2312L2.04292 21.2032C1.49255 20.9877 1.21736 20.8799 1.08755 20.6956C0.974023 20.5345 0.928515 20.3351 0.960872 20.1406C0.99787 19.9183 1.19905 19.7018 1.60142 19.2688L5.38823 15.1942C5.56035 15.009 5.64642 14.9164 5.69646 14.8085C5.74074 14.713 5.76442 14.6092 5.76596 14.504C5.76771 14.385 5.73035 14.2642 5.65562 14.0227L4.01174 8.70854C3.83707 8.14388 3.74974 7.86155 3.81288 7.64517C3.8681 7.45592 3.99561 7.29603 4.16782 7.20008C4.36473 7.09037 4.65942 7.11269 5.24878 7.15734L10.7955 7.5775C11.0476 7.59659 11.1737 7.60614 11.2893 7.57797C11.3915 7.55305 11.4874 7.50688 11.5707 7.44245C11.6648 7.36964 11.7359 7.26513 11.8782 7.05611L15.008 2.45756Z" fill="#D32D7B"/>
</mask>
<g mask="url(#mask0_959_8691)">
<rect width="32" height="32" fill="#E0297F"/>
<path d="M9.19188 23.9101L3.95703 22.0268L7.99914 32.0004H31.9991V14.0004L27.132 11.7983L25.8657 15.2046C24.9767 17.5962 24.3963 20.0914 24.1388 22.6299L23.9107 24.8782C23.7938 26.03 23.9554 27.193 24.3817 28.2693L22.7439 31.6994L18.918 29.1321L14.6877 26.5452C12.95 25.4825 11.1085 24.5996 9.19188 23.9101Z" fill="#BD286E"/>
<path d="M1.21875 5.10205L4.61324 15.9594L6.42652 14.1612C7.95752 12.643 9.32037 10.9641 10.4915 9.15375L12.2802 6.38862L1.21875 5.10205Z" fill="#E43F8C"/>
</g>
</g>
<defs>
<clipPath id="clip0_959_8691">
<rect width="32" height="32" fill="white"/>
</clipPath>
</defs>
</svg>
