<svg width="32" height="32" viewBox="0 0 32 32" fill="none" xmlns="http://www.w3.org/2000/svg">
<g clip-path="url(#clip0_959_8478)">
<path fill-rule="evenodd" clip-rule="evenodd" d="M12.2227 5.22266L12.5 16L12.2227 26.7734L9.03484 26.1895C8.66824 26.1224 8.48495 26.0888 8.35039 25.9942C8.23182 25.9108 8.13997 25.7948 8.08594 25.6603C8.02462 25.5076 8.03393 25.3215 8.05254 24.9493L8.5 16L8.05249 7.0498C8.03389 6.67788 8.0246 6.49191 8.08583 6.33933C8.13979 6.20488 8.23153 6.08894 8.34997 6.00551C8.48439 5.91083 8.6675 5.87712 9.03374 5.8097L12.2227 5.22266Z" fill="#2F84BC"/>
<path fill-rule="evenodd" clip-rule="evenodd" d="M11.5768 5.3558C12.0645 5.23387 12.3084 5.1729 12.5041 5.23047C12.6757 5.28097 12.8237 5.39115 12.9212 5.54114C13.0324 5.71215 13.0438 5.96326 13.0666 6.46548L13.5 16L13.0666 25.5345C13.0438 26.0367 13.0324 26.2878 12.9212 26.4589C12.8237 26.6088 12.6757 26.719 12.5041 26.7695C12.3084 26.8271 12.0645 26.7661 11.5768 26.6442L9.95671 26.2392C9.61598 26.154 9.44562 26.1114 9.32136 26.0154C9.21179 25.9308 9.12779 25.8175 9.07866 25.688C9.02294 25.5412 9.03171 25.3659 9.04925 25.0151L9.5 16L9.04925 6.98492C9.03171 6.63415 9.02294 6.45876 9.07866 6.31197C9.12779 6.18253 9.21179 6.06921 9.32136 5.98458C9.44562 5.8886 9.61598 5.846 9.95671 5.76082L11.5768 5.3558Z" fill="#3498DB"/>
<path fill-rule="evenodd" clip-rule="evenodd" d="M19.7773 26.7773L19.5 16L19.7773 5.22656L22.9652 5.81045C23.3318 5.8776 23.5151 5.91117 23.6496 6.00583C23.7682 6.08923 23.86 6.20521 23.9141 6.33973C23.9754 6.4924 23.9661 6.67851 23.9475 7.05074L23.5 16L23.9475 24.9502C23.9661 25.3221 23.9754 25.5081 23.9142 25.6607C23.8602 25.7951 23.7685 25.9111 23.65 25.9945C23.5156 26.0892 23.3325 26.1229 22.9663 26.1903L19.7773 26.7773Z" fill="#2F84BC"/>
<path fill-rule="evenodd" clip-rule="evenodd" d="M20.4232 26.6442C19.9355 26.7661 19.6916 26.8271 19.4959 26.7695C19.3243 26.719 19.1763 26.6088 19.0788 26.4589C18.9676 26.2878 18.9562 26.0367 18.9334 25.5345L18.5 16L18.9334 6.46548C18.9562 5.96326 18.9676 5.71215 19.0788 5.54114C19.1763 5.39115 19.3243 5.28097 19.4959 5.23047C19.6916 5.1729 19.9355 5.23387 20.4232 5.3558L22.0433 5.76082C22.384 5.846 22.5544 5.8886 22.6786 5.98458C22.7882 6.06921 22.8722 6.18253 22.9213 6.31197C22.9771 6.45876 22.9683 6.63415 22.9508 6.98492L22.5 16L22.9508 25.0151C22.9683 25.3659 22.9771 25.5412 22.9213 25.688C22.8722 25.8175 22.7882 25.9308 22.6786 26.0154C22.5544 26.1114 22.384 26.154 22.0433 26.2392L20.4232 26.6442Z" fill="#3498DB"/>
</g>
<defs>
<clipPath id="clip0_959_8478">
<rect width="32" height="32" fill="white"/>
</clipPath>
</defs>
</svg>
