<svg width="32" height="32" viewBox="0 0 32 32" fill="none" xmlns="http://www.w3.org/2000/svg">
<g clip-path="url(#clip0_959_8548)">
<path fill-rule="evenodd" clip-rule="evenodd" d="M15.0948 12.6983C14.8771 12.6257 14.7683 12.5894 14.6789 12.5269C14.5998 12.4715 14.5321 12.4013 14.4795 12.3203C14.4202 12.2287 14.3878 12.1186 14.3231 11.8985L12.2832 4.963C12.1825 4.62052 12.1321 4.44928 12.1531 4.29161C12.1715 4.1526 12.2286 4.02154 12.3177 3.91332C12.4189 3.79056 12.5785 3.71074 12.8978 3.55109L15.4633 2.26833C15.6601 2.16994 15.7585 2.12075 15.8617 2.10139C15.9531 2.08424 16.0469 2.08424 16.1383 2.10139C16.2415 2.12075 16.3399 2.16994 16.5367 2.26833L19.1022 3.55109C19.4215 3.71074 19.5811 3.79056 19.6823 3.91332C19.7714 4.02154 19.8285 4.1526 19.8469 4.29161C19.8679 4.44928 19.8175 4.62052 19.7168 4.963L17.6769 11.8985C17.6122 12.1186 17.5798 12.2287 17.5205 12.3203C17.4679 12.4013 17.4002 12.4715 17.3211 12.5269C17.2317 12.5894 17.1229 12.6257 16.9052 12.6983L16.3795 12.8735C16.2387 12.9204 16.1683 12.9439 16.0963 12.9532C16.0324 12.9615 15.9676 12.9615 15.9037 12.9532C15.8317 12.9439 15.7613 12.9204 15.6205 12.8735L15.0948 12.6983Z" fill="#CDAA1D"/>
<path fill-rule="evenodd" clip-rule="evenodd" d="M15.1698 12.7233C14.9261 12.642 14.8042 12.6014 14.7074 12.5292C14.6218 12.4654 14.5509 12.384 14.4992 12.2905C14.4409 12.1849 14.4172 12.0586 14.3699 11.806L13.1929 5.52862C13.1245 5.16407 13.0903 4.98179 13.1301 4.82278C13.1651 4.68266 13.2399 4.55563 13.3453 4.45696C13.465 4.34499 13.641 4.28634 13.9928 4.16905L15.6205 3.62649C15.7613 3.57956 15.8317 3.55609 15.9037 3.54677C15.9676 3.5385 16.0324 3.5385 16.0963 3.54677C16.1683 3.55609 16.2387 3.57956 16.3795 3.62649L18.0072 4.16905C18.359 4.28634 18.535 4.34499 18.6547 4.45696C18.7601 4.55563 18.8349 4.68266 18.8699 4.82278C18.9097 4.98179 18.8755 5.16407 18.8071 5.52862L17.6301 11.806C17.5828 12.0586 17.5591 12.1849 17.5008 12.2905C17.4491 12.384 17.3782 12.4654 17.2926 12.5292C17.1958 12.6014 17.0739 12.642 16.8301 12.7233L16.3795 12.8735C16.2387 12.9204 16.1683 12.9439 16.0963 12.9532C16.0324 12.9615 15.9676 12.9615 15.9037 12.9532C15.8317 12.9439 15.7613 12.9204 15.6205 12.8735L15.1698 12.7233Z" fill="#DEB306"/>
<path fill-rule="evenodd" clip-rule="evenodd" d="M12.5788 15.8407C12.4425 16.0253 12.3744 16.1176 12.2873 16.1833C12.2101 16.2414 12.1225 16.2841 12.0292 16.309C11.9237 16.3372 11.809 16.3339 11.5797 16.3275L4.35329 16.1243C3.99645 16.1143 3.81803 16.1093 3.67453 16.0407C3.54803 15.9802 3.44101 15.8854 3.36564 15.7672C3.28015 15.633 3.25357 15.4565 3.2004 15.1035L2.77321 12.2672C2.74045 12.0496 2.72407 11.9408 2.73754 11.8367C2.74948 11.7445 2.77846 11.6553 2.82301 11.5737C2.87332 11.4815 2.95051 11.4031 3.10488 11.2464L5.11766 9.20282C5.36816 8.94848 5.49341 8.82131 5.64141 8.76305C5.7719 8.71169 5.91417 8.69793 6.05207 8.72335C6.20849 8.75217 6.35579 8.85299 6.65038 9.05462L12.616 13.1378C12.8054 13.2674 12.9001 13.3322 12.9689 13.4169C13.0297 13.4919 13.0755 13.578 13.1037 13.6704C13.1356 13.7747 13.1365 13.8895 13.1382 14.1189L13.1424 14.6731C13.1436 14.8215 13.1441 14.8957 13.1307 14.967C13.1189 15.0304 13.0989 15.0919 13.0712 15.1501C13.0401 15.2158 12.9961 15.2755 12.9079 15.3949L12.5788 15.8407Z" fill="#CDAA1D"/>
<path fill-rule="evenodd" clip-rule="evenodd" d="M12.6273 15.777C12.4747 15.9838 12.3984 16.0871 12.2999 16.1569C12.2127 16.2185 12.1134 16.2609 12.0086 16.2811C11.89 16.3039 11.7626 16.2874 11.5078 16.2544L5.17389 15.434C4.80606 15.3863 4.62214 15.3625 4.48319 15.2756C4.36076 15.1989 4.26305 15.0886 4.2018 14.9578C4.1323 14.8094 4.13089 14.6239 4.12807 14.253L4.11505 12.5373C4.11392 12.3889 4.11336 12.3147 4.12675 12.2434C4.13863 12.18 4.15863 12.1185 4.18624 12.0603C4.21736 11.9946 4.26143 11.9349 4.34958 11.8155L5.36857 10.4352C5.58885 10.1368 5.69899 9.98757 5.84247 9.90833C5.96891 9.83851 6.11281 9.80667 6.2569 9.81666C6.42041 9.82799 6.58321 9.91682 6.9088 10.0945L12.5152 13.1537C12.7408 13.2768 12.8536 13.3383 12.9361 13.4265C13.009 13.5044 13.0645 13.5971 13.0987 13.6982C13.1375 13.8125 13.1385 13.941 13.1404 14.198L13.144 14.673C13.1451 14.8214 13.1457 14.8956 13.1323 14.967C13.1204 15.0303 13.1004 15.0919 13.0728 15.1501C13.0417 15.2157 12.9976 15.2754 12.9095 15.3948L12.6273 15.777Z" fill="#DEB306"/>
<path fill-rule="evenodd" clip-rule="evenodd" d="M14.7899 19.2037C14.9233 19.3904 14.9901 19.4837 15.0256 19.5868C15.0571 19.6782 15.0706 19.7747 15.0655 19.8712C15.0596 19.9801 15.0211 20.0882 14.9441 20.3044L12.5178 27.1143C12.398 27.4505 12.3381 27.6187 12.2285 27.734C12.1319 27.8356 12.0087 27.9081 11.8729 27.9432C11.7189 27.9831 11.5429 27.9538 11.1907 27.8953L8.36115 27.4251C8.14413 27.389 8.03562 27.371 7.94075 27.326C7.85673 27.2861 7.78084 27.231 7.71698 27.1634C7.64487 27.0871 7.59419 26.9895 7.49283 26.7942L6.17126 24.2485C6.00678 23.9316 5.92454 23.7732 5.91487 23.6144C5.90634 23.4745 5.93722 23.3349 6.00401 23.2116C6.07976 23.0717 6.22116 22.9628 6.50396 22.7449L12.2308 18.333C12.4126 18.193 12.5035 18.123 12.6053 18.0838C12.6954 18.049 12.7914 18.0321 12.888 18.0338C12.9971 18.0357 13.1065 18.0703 13.3253 18.1396L13.8536 18.3068C13.9951 18.3516 14.0658 18.374 14.1295 18.4088C14.1861 18.4397 14.2385 18.4777 14.2853 18.522C14.3381 18.5718 14.3812 18.6322 14.4676 18.7529L14.7899 19.2037Z" fill="#CDAA1D"/>
<path fill-rule="evenodd" clip-rule="evenodd" d="M14.7446 19.1391C14.894 19.3482 14.9688 19.4527 15.0046 19.5679C15.0363 19.6699 15.0459 19.7774 15.0327 19.8834C15.0178 20.0032 14.9628 20.1192 14.8526 20.3514L12.1151 26.1218C11.9561 26.4569 11.8766 26.6244 11.751 26.7297C11.6403 26.8225 11.5051 26.8813 11.3618 26.8991C11.1992 26.9194 11.0224 26.8634 10.6687 26.7515L9.03301 26.2337C8.89152 26.1889 8.82077 26.1665 8.75703 26.1317C8.70047 26.1008 8.64812 26.0628 8.60128 26.0185C8.54849 25.9687 8.50533 25.9083 8.41901 25.7876L7.42109 24.3919C7.20536 24.0902 7.0975 23.9393 7.06648 23.7784C7.03914 23.6366 7.05334 23.4899 7.10736 23.3559C7.16867 23.2039 7.30346 23.0765 7.57303 22.8218L12.215 18.4351C12.4018 18.2586 12.4952 18.1703 12.6045 18.1192C12.7012 18.0739 12.8064 18.0497 12.9132 18.0484C13.0339 18.0469 13.1564 18.0857 13.4014 18.1632L13.8543 18.3066C13.9958 18.3514 14.0665 18.3738 14.1303 18.4086C14.1868 18.4394 14.2392 18.4775 14.286 18.5217C14.3388 18.5716 14.3819 18.632 14.4683 18.7527L14.7446 19.1391Z" fill="#DEB306"/>
<path fill-rule="evenodd" clip-rule="evenodd" d="M18.6723 18.1395C18.891 18.0702 19.0004 18.0356 19.1095 18.0337C19.2061 18.0319 19.3021 18.0489 19.3922 18.0836C19.4941 18.1228 19.585 18.1928 19.7667 18.3329L25.4936 22.7448C25.7764 22.9627 25.9178 23.0716 25.9935 23.2115C26.0603 23.3348 26.0912 23.4743 26.0827 23.6143C26.073 23.7731 25.9907 23.9315 25.8263 24.2483L24.5047 26.7941C24.4033 26.9893 24.3527 27.087 24.2805 27.1633C24.2167 27.2309 24.1408 27.286 24.0568 27.3259C23.9619 27.3709 23.8534 27.3889 23.6364 27.4249L20.8068 27.8952C20.4547 27.9537 20.2786 27.9829 20.1246 27.9431C19.9889 27.9079 19.8657 27.8354 19.769 27.7338C19.6594 27.6186 19.5995 27.4504 19.4797 27.1141L17.0534 20.3042C16.9764 20.0881 16.9379 19.98 16.9321 19.871C16.9269 19.7746 16.9405 19.678 16.9719 19.5867C17.0075 19.4836 17.0742 19.3902 17.2077 19.2035L17.53 18.7528C17.6163 18.6321 17.6594 18.5717 17.7122 18.5218C17.7591 18.4776 17.8114 18.4395 17.868 18.4087C17.9317 18.3739 18.0025 18.3515 18.144 18.3067L18.6723 18.1395Z" fill="#CDAA1D"/>
<path fill-rule="evenodd" clip-rule="evenodd" d="M18.5953 18.1634C18.8403 18.0858 18.9628 18.047 19.0835 18.0485C19.1903 18.0499 19.2955 18.074 19.3922 18.1193C19.5015 18.1705 19.5949 18.2587 19.7817 18.4352L24.4236 22.8219C24.6932 23.0767 24.828 23.2041 24.8893 23.3561C24.9433 23.49 24.9575 23.6367 24.9302 23.7785C24.8992 23.9395 24.7913 24.0903 24.5756 24.3921L23.5777 25.7877C23.4913 25.9085 23.4482 25.9688 23.3954 26.0187C23.3486 26.0629 23.2962 26.101 23.2397 26.1318C23.1759 26.1666 23.1052 26.189 22.9637 26.2338L21.3279 26.7516C20.9743 26.8635 20.7975 26.9195 20.6349 26.8993C20.4915 26.8815 20.3564 26.8226 20.2457 26.7299C20.1201 26.6246 20.0406 26.457 19.8816 26.1219L17.1441 20.3516C17.0339 20.1194 16.9788 20.0033 16.9639 19.8835C16.9507 19.7776 16.9603 19.67 16.992 19.5681C17.0279 19.4528 17.1026 19.3483 17.2521 19.1393L17.5284 18.7528C17.6147 18.6321 17.6579 18.5717 17.7107 18.5219C17.7575 18.4776 17.8099 18.4396 17.8664 18.4087C17.9302 18.3739 18.0009 18.3515 18.1424 18.3067L18.5953 18.1634Z" fill="#DEB306"/>
<path fill-rule="evenodd" clip-rule="evenodd" d="M18.8603 14.1189C18.8621 13.8894 18.8629 13.7747 18.8948 13.6703C18.923 13.578 18.9688 13.4919 19.0297 13.4169C19.0985 13.3322 19.1931 13.2674 19.3825 13.1377L25.3482 9.05457C25.6428 8.85294 25.7901 8.75212 25.9465 8.72329C26.0844 8.69788 26.2267 8.71163 26.3572 8.763C26.5052 8.82126 26.6304 8.94843 26.8809 9.20276L28.8937 11.2463C29.0481 11.4031 29.1252 11.4814 29.1756 11.5736C29.2201 11.6552 29.2491 11.7444 29.261 11.8367C29.2745 11.9408 29.2581 12.0496 29.2254 12.2671L28.7982 15.1035C28.745 15.4565 28.7184 15.633 28.6329 15.7671C28.5576 15.8854 28.4505 15.9801 28.324 16.0406C28.1805 16.1092 28.0021 16.1142 27.6453 16.1243L20.4189 16.3274C20.1895 16.3339 20.0748 16.3371 19.9694 16.309C19.8761 16.2841 19.7884 16.2414 19.7113 16.1832C19.6242 16.1176 19.556 16.0252 19.4198 15.8406L19.0907 15.3948C19.0025 15.2754 18.9584 15.2157 18.9273 15.1501C18.8997 15.0919 18.8797 15.0303 18.8678 14.967C18.8544 14.8956 18.855 14.8214 18.8561 14.673L18.8603 14.1189Z" fill="#CDAA1D"/>
<path fill-rule="evenodd" clip-rule="evenodd" d="M18.859 14.1982C18.861 13.9412 18.8619 13.8127 18.9007 13.6984C18.9349 13.5973 18.9904 13.5046 19.0633 13.4267C19.1458 13.3386 19.2586 13.277 19.4842 13.1539L25.0906 10.0947C25.4162 9.91703 25.579 9.8282 25.7425 9.81686C25.8866 9.80688 26.0305 9.83871 26.1569 9.90853C26.3004 9.98777 26.4106 10.137 26.6308 10.4354L27.6498 11.8157C27.738 11.9351 27.7821 11.9948 27.8132 12.0605C27.8408 12.1187 27.8608 12.1802 27.8727 12.2436C27.8861 12.3149 27.8855 12.3891 27.8844 12.5375L27.8713 14.2532C27.8685 14.6241 27.8671 14.8096 27.7976 14.958C27.7364 15.0888 27.6387 15.1991 27.5162 15.2758C27.3773 15.3627 27.1934 15.3865 26.8255 15.4342L20.4917 16.2546C20.2368 16.2876 20.1094 16.3041 19.9909 16.2813C19.886 16.2611 19.7867 16.2187 19.6995 16.1571C19.601 16.0873 19.5247 15.984 19.3721 15.7772L19.0899 15.395C19.0018 15.2756 18.9577 15.2159 18.9266 15.1503C18.899 15.0921 18.879 15.0305 18.8671 14.9672C18.8537 14.8958 18.8543 14.8216 18.8554 14.6732L18.859 14.1982Z" fill="#DEB306"/>
</g>
<defs>
<clipPath id="clip0_959_8548">
<rect width="32" height="32" fill="white"/>
</clipPath>
</defs>
</svg>
