<svg width="32" height="32" viewBox="0 0 32 32" fill="none" xmlns="http://www.w3.org/2000/svg">
<g clip-path="url(#clip0_959_8607)">
<path fill-rule="evenodd" clip-rule="evenodd" d="M15.4336 12.7168C15.2735 12.6367 15.1934 12.5967 15.1267 12.5412C15.0675 12.492 15.0163 12.434 14.9748 12.3692C14.928 12.2961 14.8982 12.2117 14.8387 12.0429L12.3526 4.99895C12.2277 4.64528 12.1653 4.46844 12.181 4.30385C12.1947 4.15884 12.2504 4.02098 12.3412 3.9071C12.4443 3.77784 12.612 3.69398 12.9475 3.52625L15.4633 2.26833C15.6601 2.16994 15.7585 2.12075 15.8617 2.10139C15.9531 2.08424 16.0469 2.08424 16.1383 2.10139C16.2415 2.12075 16.3399 2.16994 16.5367 2.26833L19.0525 3.52625C19.388 3.69398 19.5557 3.77784 19.6588 3.9071C19.7496 4.02098 19.8053 4.15884 19.819 4.30385C19.8347 4.46844 19.7723 4.64527 19.6474 4.99895L17.1613 12.0429C17.1018 12.2117 17.072 12.2961 17.0252 12.3692C16.9837 12.434 16.9325 12.492 16.8733 12.5412C16.8066 12.5967 16.7265 12.6367 16.5664 12.7168L16.5367 12.7317C16.3399 12.8301 16.2415 12.8793 16.1383 12.8986C16.0469 12.9158 15.9531 12.9158 15.8617 12.8986C15.7585 12.8793 15.6601 12.8301 15.4633 12.7317L15.4336 12.7168Z" fill="#BF61D6"/>
<path fill-rule="evenodd" clip-rule="evenodd" d="M15.474 12.737C15.3054 12.6527 15.2211 12.6106 15.152 12.5519C15.0822 12.4926 15.0239 12.421 14.9798 12.3406C14.9363 12.2611 14.912 12.1701 14.8635 11.988L13.252 5.94508C13.1622 5.60828 13.1173 5.43988 13.1406 5.28556C13.1611 5.14946 13.2187 5.02164 13.307 4.91609C13.4072 4.79641 13.5631 4.71846 13.8748 4.56258L15.4633 3.76833C15.6601 3.66994 15.7585 3.62075 15.8617 3.60139C15.9531 3.58424 16.0469 3.58424 16.1383 3.60139C16.2415 3.62075 16.3399 3.66994 16.5367 3.76833L18.1252 4.56258C18.4369 4.71846 18.5928 4.79641 18.693 4.91609C18.7813 5.02164 18.8389 5.14946 18.8594 5.28556C18.8827 5.43988 18.8378 5.60828 18.748 5.94508L17.1365 11.988C17.088 12.1701 17.0637 12.2611 17.0202 12.3406C16.9761 12.421 16.9178 12.4926 16.848 12.5519C16.7789 12.6106 16.6946 12.6527 16.526 12.737V12.737C16.3397 12.8302 16.2465 12.8767 16.1491 12.8965C16.0507 12.9165 15.9493 12.9165 15.8509 12.8965C15.7535 12.8767 15.6603 12.8302 15.474 12.737V12.737Z" fill="#DD5CFD"/>
<path fill-rule="evenodd" clip-rule="evenodd" d="M18.5608 13.8676C18.5501 13.6889 18.5447 13.5996 18.5594 13.5141C18.5724 13.4382 18.5971 13.3649 18.6324 13.2965C18.6723 13.2195 18.7305 13.1515 18.847 13.0154L23.7041 7.34047C23.948 7.05553 24.0699 6.91307 24.2203 6.8443C24.3527 6.78372 24.5 6.76302 24.644 6.78473C24.8075 6.80937 24.964 6.9127 25.277 7.11935L27.6243 8.66917C27.8079 8.79039 27.8997 8.851 27.968 8.93069C28.0286 9.00127 28.0755 9.0825 28.1063 9.17023C28.1412 9.26928 28.1478 9.37908 28.1609 9.59869L28.3295 12.4064C28.352 12.7808 28.3632 12.968 28.3028 13.1219C28.2496 13.2575 28.158 13.3747 28.0393 13.4591C27.9046 13.5549 27.7203 13.5893 27.3516 13.658L20.0083 15.0269C19.8323 15.0598 19.7443 15.0762 19.6576 15.0722C19.5808 15.0686 19.5049 15.0533 19.4327 15.0267C19.3513 14.9967 19.2766 14.9473 19.1272 14.8487L19.0994 14.8304C18.9158 14.7091 18.824 14.6485 18.7557 14.5688C18.6951 14.4983 18.6482 14.417 18.6174 14.3293C18.5825 14.2302 18.576 14.1204 18.5628 13.9008L18.5608 13.8676Z" fill="#BF61D6"/>
<path fill-rule="evenodd" clip-rule="evenodd" d="M18.5637 13.9125C18.5524 13.7244 18.5468 13.6303 18.563 13.5412C18.5795 13.451 18.6123 13.3647 18.6599 13.2864C18.707 13.2089 18.7737 13.1424 18.9071 13.0093L23.3347 8.5923C23.5815 8.34612 23.7048 8.22303 23.8501 8.16603C23.9783 8.11576 24.1177 8.10172 24.2533 8.12544C24.407 8.15234 24.5525 8.24837 24.8434 8.44043L26.3255 9.41899C26.5091 9.5402 26.6009 9.60081 26.6692 9.6805C26.7298 9.75109 26.7767 9.83231 26.8075 9.92004C26.8423 10.0191 26.8489 10.1289 26.8621 10.3485L26.9685 12.1213C26.9894 12.4693 26.9999 12.6432 26.9463 12.7898C26.899 12.9191 26.8171 13.0329 26.7095 13.1187C26.5875 13.216 26.4192 13.2613 26.0827 13.3519L20.0436 14.9778C19.8617 15.0268 19.7707 15.0513 19.68 15.0534C19.5885 15.0554 19.4973 15.0407 19.411 15.0099C19.3256 14.9794 19.247 14.9275 19.0897 14.8236V14.8236C18.9159 14.7088 18.8289 14.6514 18.7631 14.577C18.6966 14.5017 18.6459 14.4139 18.614 14.3187C18.5824 14.2245 18.5762 14.1205 18.5637 13.9125V13.9125Z" fill="#DD5CFD"/>
<path fill-rule="evenodd" clip-rule="evenodd" d="M19.1272 17.1508C19.2766 17.0522 19.3513 17.0029 19.4327 16.9729C19.5049 16.9462 19.5808 16.9309 19.6576 16.9274C19.7443 16.9234 19.8323 16.9398 20.0083 16.9726L27.3516 18.3415C27.7203 18.4103 27.9046 18.4446 28.0393 18.5404C28.158 18.6249 28.2496 18.742 28.3028 18.8776C28.3632 19.0315 28.352 19.2187 28.3295 19.5931L28.1609 22.4008C28.1478 22.6204 28.1412 22.7302 28.1063 22.8293C28.0755 22.917 28.0286 22.9983 27.968 23.0688C27.8997 23.1485 27.8079 23.2091 27.6243 23.3304L25.277 24.8802C24.964 25.0868 24.8075 25.1902 24.644 25.2148C24.5 25.2365 24.3527 25.2158 24.2203 25.1552C24.0699 25.0865 23.948 24.944 23.7041 24.6591L18.847 18.9841C18.7305 18.8481 18.6723 18.7801 18.6324 18.703C18.5971 18.6347 18.5724 18.5613 18.5594 18.4855C18.5447 18.4 18.5501 18.3106 18.5608 18.1319L18.5628 18.0987C18.576 17.8791 18.5825 17.7693 18.6174 17.6702C18.6482 17.5825 18.6951 17.5013 18.7557 17.4307C18.824 17.351 18.9158 17.2904 19.0994 17.1692L19.1272 17.1508Z" fill="#BF61D6"/>
<path fill-rule="evenodd" clip-rule="evenodd" d="M19.0897 17.1755C19.247 17.0717 19.3256 17.0198 19.411 16.9893C19.4973 16.9585 19.5885 16.9437 19.68 16.9458C19.7707 16.9478 19.8617 16.9723 20.0436 17.0213L26.0827 18.6472C26.4192 18.7378 26.5875 18.7832 26.7095 18.8805C26.8171 18.9663 26.899 19.0801 26.9463 19.2094C26.9999 19.3559 26.9894 19.5299 26.9685 19.8779L26.8621 21.6507C26.8489 21.8703 26.8423 21.9801 26.8075 22.0791C26.7767 22.1668 26.7298 22.2481 26.6692 22.3187C26.6009 22.3983 26.5091 22.459 26.3255 22.5802L24.8434 23.5587C24.5525 23.7508 24.407 23.8468 24.2533 23.8737C24.1177 23.8974 23.9783 23.8834 23.8501 23.8331C23.7048 23.7761 23.5815 23.653 23.3347 23.4069L18.9071 18.9899C18.7737 18.8568 18.707 18.7902 18.6599 18.7127C18.6123 18.6345 18.5795 18.5481 18.563 18.458C18.5468 18.3688 18.5524 18.2748 18.5637 18.0867V18.0867C18.5762 17.8787 18.5824 17.7747 18.614 17.6805C18.6459 17.5853 18.6966 17.4974 18.7631 17.4222C18.8289 17.3477 18.9159 17.2903 19.0897 17.1755V17.1755Z" fill="#DD5CFD"/>
<path fill-rule="evenodd" clip-rule="evenodd" d="M16.5664 19.2832C16.7265 19.3633 16.8066 19.4033 16.8733 19.4588C16.9325 19.508 16.9837 19.566 17.0252 19.6308C17.072 19.7039 17.1018 19.7883 17.1613 19.9571L19.6474 27.0011C19.7723 27.3547 19.8347 27.5316 19.819 27.6961C19.8053 27.8412 19.7496 27.979 19.6588 28.0929C19.5557 28.2222 19.388 28.306 19.0525 28.4738L16.5367 29.7317C16.3399 29.8301 16.2415 29.8793 16.1383 29.8986C16.0469 29.9158 15.9531 29.9158 15.8617 29.8986C15.7585 29.8793 15.6601 29.8301 15.4633 29.7317L12.9475 28.4738C12.612 28.306 12.4443 28.2222 12.3412 28.0929C12.2504 27.979 12.1947 27.8412 12.181 27.6961C12.1653 27.5316 12.2277 27.3547 12.3526 27.0011L14.8387 19.9571C14.8982 19.7883 14.928 19.7039 14.9748 19.6308C15.0163 19.566 15.0675 19.508 15.1267 19.4588C15.1934 19.4033 15.2735 19.3633 15.4336 19.2832L15.4633 19.2683C15.6601 19.1699 15.7585 19.1207 15.8617 19.1014C15.9531 19.0842 16.0469 19.0842 16.1383 19.1014C16.2415 19.1207 16.3399 19.1699 16.5367 19.2683L16.5664 19.2832Z" fill="#BF61D6"/>
<path fill-rule="evenodd" clip-rule="evenodd" d="M16.526 19.263C16.6946 19.3473 16.7789 19.3894 16.848 19.4481C16.9178 19.5074 16.9761 19.579 17.0202 19.6594C17.0637 19.7389 17.088 19.8299 17.1365 20.012L18.748 26.0549C18.8378 26.3917 18.8827 26.5601 18.8594 26.7144C18.8389 26.8505 18.7813 26.9784 18.693 27.0839C18.5928 27.2036 18.4369 27.2815 18.1252 27.4374L16.5367 28.2317C16.3399 28.3301 16.2415 28.3793 16.1383 28.3986C16.0469 28.4158 15.9531 28.4158 15.8617 28.3986C15.7585 28.3793 15.6601 28.3301 15.4633 28.2317L13.8748 27.4374C13.5631 27.2815 13.4072 27.2036 13.307 27.0839C13.2187 26.9784 13.1611 26.8505 13.1406 26.7144C13.1173 26.5601 13.1622 26.3917 13.252 26.0549L14.8635 20.012C14.912 19.8299 14.9363 19.7389 14.9798 19.6594C15.0239 19.579 15.0822 19.5074 15.152 19.4481C15.2211 19.3894 15.3054 19.3473 15.474 19.263V19.263C15.6603 19.1698 15.7535 19.1233 15.8509 19.1035C15.9493 19.0835 16.0507 19.0835 16.1491 19.1035C16.2465 19.1233 16.3397 19.1698 16.526 19.263V19.263Z" fill="#DD5CFD"/>
<path fill-rule="evenodd" clip-rule="evenodd" d="M13.4392 18.1324C13.4499 18.3111 13.4553 18.4004 13.4406 18.4859C13.4276 18.5618 13.4029 18.6351 13.3676 18.7035C13.3277 18.7805 13.2695 18.8485 13.153 18.9846L8.29588 24.6595C8.052 24.9445 7.93007 25.0869 7.77972 25.1557C7.64725 25.2163 7.50001 25.237 7.35598 25.2153C7.1925 25.1906 7.03601 25.0873 6.72302 24.8807L4.37571 23.3308C4.19212 23.2096 4.10032 23.149 4.03195 23.0693C3.9714 22.9987 3.9245 22.9175 3.89365 22.8298C3.85882 22.7307 3.85223 22.6209 3.83905 22.4013L3.67052 19.5936C3.64805 19.2192 3.63681 19.032 3.69721 18.8781C3.75043 18.7425 3.84197 18.6253 3.96067 18.5409C4.0954 18.4451 4.27975 18.4107 4.64845 18.342L11.9917 16.9731C12.1677 16.9402 12.2557 16.9238 12.3424 16.9278C12.4192 16.9314 12.4951 16.9467 12.5673 16.9733C12.6487 17.0033 12.7234 17.0527 12.8728 17.1513L12.9006 17.1696C13.0842 17.2909 13.176 17.3515 13.2443 17.4312C13.3049 17.5017 13.3518 17.583 13.3826 17.6707C13.4175 17.7698 13.424 17.8796 13.4372 18.0992L13.4392 18.1324Z" fill="#BF61D6"/>
<path fill-rule="evenodd" clip-rule="evenodd" d="M13.4363 18.0875C13.4476 18.2756 13.4532 18.3697 13.437 18.4588C13.4205 18.549 13.3877 18.6353 13.3401 18.7136C13.293 18.7911 13.2263 18.8576 13.0929 18.9907L8.66532 23.4077C8.41855 23.6539 8.29516 23.777 8.14988 23.834C8.02175 23.8842 7.88226 23.8983 7.74669 23.8746C7.59295 23.8477 7.44751 23.7516 7.15662 23.5596L5.67454 22.581C5.49094 22.4598 5.39915 22.3992 5.33078 22.3195C5.27023 22.2489 5.22333 22.1677 5.19248 22.08C5.15765 21.9809 5.15106 21.8711 5.13788 21.6515L5.03147 19.8787C5.01059 19.5307 5.00014 19.3568 5.05371 19.2102C5.10096 19.0809 5.18286 18.9671 5.29046 18.8813C5.41246 18.784 5.58076 18.7387 5.91734 18.6481L11.9564 17.0222C12.1383 16.9732 12.2293 16.9487 12.32 16.9466C12.4115 16.9446 12.5027 16.9593 12.589 16.9901C12.6744 17.0206 12.753 17.0725 12.9103 17.1764V17.1764C13.0841 17.2912 13.1711 17.3486 13.2369 17.423C13.3034 17.4983 13.3541 17.5861 13.386 17.6813C13.4176 17.7755 13.4238 17.8795 13.4363 18.0875V18.0875Z" fill="#DD5CFD"/>
<path fill-rule="evenodd" clip-rule="evenodd" d="M12.8728 14.8492C12.7234 14.9478 12.6487 14.9971 12.5673 15.0271C12.4951 15.0538 12.4192 15.0691 12.3424 15.0726C12.2557 15.0766 12.1677 15.0602 11.9917 15.0274L4.64845 13.6585C4.27975 13.5897 4.0954 13.5554 3.96067 13.4596C3.84197 13.3751 3.75043 13.258 3.69721 13.1224C3.63681 12.9685 3.64805 12.7813 3.67052 12.4069L3.83905 9.59916C3.85223 9.37955 3.85882 9.26975 3.89365 9.1707C3.9245 9.08297 3.9714 9.00174 4.03195 8.93116C4.10032 8.85147 4.19212 8.79086 4.37571 8.66964L6.72302 7.11982C7.03601 6.91317 7.1925 6.80984 7.35598 6.7852C7.50001 6.76349 7.64725 6.78419 7.77972 6.84477C7.93007 6.91353 8.052 7.056 8.29588 7.34094L13.153 13.0159C13.2695 13.1519 13.3277 13.2199 13.3676 13.297C13.4029 13.3653 13.4276 13.4387 13.4406 13.5145C13.4553 13.6 13.4499 13.6894 13.4392 13.8681L13.4372 13.9013C13.424 14.1209 13.4175 14.2307 13.3826 14.3298C13.3518 14.4175 13.3049 14.4987 13.2443 14.5693C13.176 14.649 13.0842 14.7096 12.9006 14.8308L12.8728 14.8492Z" fill="#BF61D6"/>
<path fill-rule="evenodd" clip-rule="evenodd" d="M12.9103 14.8245C12.753 14.9283 12.6744 14.9802 12.589 15.0107C12.5027 15.0415 12.4115 15.0563 12.32 15.0542C12.2293 15.0522 12.1383 15.0277 11.9564 14.9787L5.91734 13.3528C5.58076 13.2622 5.41246 13.2168 5.29046 13.1195C5.18286 13.0337 5.10096 12.9199 5.05371 12.7906C5.00014 12.6441 5.01059 12.4701 5.03147 12.1221L5.13788 10.3493C5.15106 10.1297 5.15765 10.0199 5.19248 9.92088C5.22333 9.83315 5.27023 9.75193 5.33078 9.68134C5.39915 9.60165 5.49094 9.54104 5.67454 9.41983L7.15662 8.44127C7.44751 8.24921 7.59295 8.15318 7.74669 8.12628C7.88226 8.10256 8.02175 8.1166 8.14988 8.16687C8.29516 8.22387 8.41855 8.34696 8.66532 8.59314L13.0929 13.0101C13.2263 13.1432 13.293 13.2098 13.3401 13.2873C13.3877 13.3655 13.4205 13.4519 13.437 13.542C13.4532 13.6312 13.4476 13.7252 13.4363 13.9133V13.9133C13.4238 14.1213 13.4176 14.2253 13.386 14.3195C13.3541 14.4147 13.3034 14.5026 13.2369 14.5778C13.1711 14.6523 13.0841 14.7097 12.9103 14.8245V14.8245Z" fill="#DD5CFD"/>
</g>
<defs>
<clipPath id="clip0_959_8607">
<rect width="32" height="32" fill="white"/>
</clipPath>
</defs>
</svg>
